<svg width="64" height="64" viewBox="0 0 64 64" fill="none" xmlns="http://www.w3.org/2000/svg">
  <defs>
    <linearGradient id="bg" x1="10" y1="8" x2="54" y2="56" gradientUnits="userSpaceOnUse">
      <stop stop-color="#0B1220"/>
      <stop offset="1" stop-color="#1E293B"/>
    </linearGradient>
    <linearGradient id="stroke" x1="18" y1="18" x2="46" y2="46" gradientUnits="userSpaceOnUse">
      <stop stop-color="#38BDF8"/>
      <stop offset="1" stop-color="#34D399"/>
    </linearGradient>
  </defs>
  <rect x="4" y="4" width="56" height="56" rx="16" fill="url(#bg)"/>
  <path d="M27.2 20.2C23.4 20.2 20.6 22.1 20.6 25.2C20.6 28.5 23.7 29.7 27 30.6C30.2 31.5 32.2 32 32.2 34.1C32.2 36.1 30.3 37.5 27.7 37.5C25 37.5 22.6 36.3 20.7 34.2L17 39.2C19.6 42 23.4 43.8 27.6 43.8C34.1 43.8 38.8 40.4 38.8 34.3C38.8 28.8 34.5 27.2 30.7 26.2C28 25.5 27.1 25.1 27.1 24C27.1 23 28.1 22.2 29.8 22.2C32 22.2 34.1 23.1 35.7 24.6L39.3 19.9C36.7 17.6 33.4 16.3 29.5 16.3C23.1 16.3 18.9 20 18.9 25.1C18.9 31 23.9 32.6 27.6 33.6C30.3 34.3 31.9 34.8 31.9 36.1C31.9 37.3 30.8 38 28.6 38C25.8 38 23 36.8 20.9 34.7L17.2 39.6C20.1 42.5 24.2 44.3 28.8 44.3C35.6 44.3 40.1 40.9 40.1 35C40.1 29.1 35.8 27.4 31.8 26.4C28.9 25.7 27.2 25.3 27.2 24.1V20.2Z" fill="#F8FAFC"/>
  <path d="M43.3 18.2H31.8V45H43.1C51.5 45 56.4 39.9 56.4 31.6C56.4 23.4 51.5 18.2 43.3 18.2ZM43 38.8H39.1V24.4H43C47.1 24.4 49.7 27 49.7 31.6C49.7 36.1 47.1 38.8 43 38.8Z" fill="url(#stroke)"/>
</svg>
